<?xml version="1.0" standalone="no"?>
<!DOCTYPE svg PUBLIC "-//W3C//DTD SVG 20010904//EN"
 "http://www.w3.org/TR/2001/REC-SVG-20010904/DTD/svg10.dtd">
<svg version="1.0" xmlns="http://www.w3.org/2000/svg"
 width="803.000000pt" height="283.000000pt" viewBox="0 0 803.000000 283.000000"
 preserveAspectRatio="xMidYMid meet">

<g transform="translate(0.000000,283.000000) scale(0.100000,-0.100000)"
fill="#000000" stroke="none">
<path d="M915 2160 c-151 -24 -349 -108 -453 -194 -115 -94 -172 -186 -198
-320 -38 -192 25 -284 204 -301 70 -7 72 -6 72 15 0 12 -7 37 -16 56 -22 47
-14 197 15 272 67 177 219 295 422 329 114 19 184 9 256 -40 98 -66 137 -176
135 -387 -1 -246 -47 -463 -137 -646 -100 -205 -214 -291 -315 -239 -17 9 -30
22 -30 29 0 8 14 78 31 157 16 79 39 185 49 234 11 50 29 133 40 185 11 52 25
115 30 140 5 25 30 139 55 254 56 260 56 256 7 256 -46 0 -320 -37 -333 -45
-5 -4 -9 -16 -9 -29 0 -12 -65 -328 -145 -701 -80 -373 -145 -685 -145 -692 0
-11 36 -13 183 -11 180 3 182 3 185 26 4 27 4 27 50 -1 70 -44 103 -52 207
-52 82 0 109 5 149 23 214 98 381 372 462 762 24 113 26 442 3 475 -4 6 -10
30 -14 55 -20 122 -117 258 -229 324 -84 49 -170 68 -326 71 -80 2 -172 0
-205 -5z"/>
<path d="M3610 2030 c-20 -22 -31 -47 -39 -92 -16 -97 3 -157 66 -205 30 -23
48 -28 109 -31 60 -3 81 0 119 18 65 31 89 70 93 152 5 86 -1 109 -39 153
l-31 35 -125 0 -125 0 -28 -30z"/>
<path d="M4340 1946 c-138 -19 -155 -23 -158 -41 -1 -11 -14 -80 -29 -152
l-26 -133 -37 0 c-37 0 -37 0 -49 -57 -15 -76 -16 -73 25 -73 29 0 34 -3 30
-17 -9 -31 -118 -545 -132 -623 l-14 -75 5 65 5 65 -20 -39 c-32 -64 -69 -105
-113 -127 -40 -21 -42 -21 -74 -4 -38 21 -39 30 -17 130 8 39 30 144 49 235
19 91 46 219 60 285 40 185 45 216 39 226 -3 5 -85 9 -182 9 l-177 0 -70 -327
c-38 -181 -77 -371 -87 -423 -14 -76 -17 -83 -13 -35 l5 60 -28 -53 c-54 -103
-112 -141 -161 -104 -35 27 -32 68 18 275 46 191 64 326 55 411 -8 70 -21 101
-61 137 -57 53 -90 64 -203 64 -92 0 -112 -3 -160 -26 -30 -14 -73 -42 -94
-62 -22 -21 -40 -36 -40 -35 -47 90 -102 121 -221 126 -87 4 -130 -4 -218 -43
-14 -6 -20 -2 -24 14 -5 20 -10 21 -182 21 l-176 0 -118 -558 c-65 -306 -117
-563 -117 -569 0 -10 43 -13 183 -13 l183 0 11 63 c7 34 21 105 32 157 11 52
29 136 40 185 11 50 31 146 46 215 31 147 71 230 125 266 45 30 66 24 81 -25
10 -33 2 -82 -70 -422 -45 -211 -84 -396 -87 -411 l-6 -28 185 0 184 0 16 78
c9 42 28 131 42 197 14 66 30 140 35 165 57 288 90 383 151 434 37 32 60 33
85 5 29 -32 23 -128 -19 -304 -69 -292 -73 -397 -21 -482 45 -72 102 -97 234
-101 88 -3 114 0 160 17 66 25 140 90 140 123 0 18 5 14 19 -17 22 -49 77 -99
127 -115 24 -8 73 -11 139 -8 87 4 111 9 167 35 36 17 86 50 111 75 44 42 46
43 52 21 9 -38 73 -101 120 -119 71 -27 232 -16 312 20 35 16 67 34 72 40 9
11 82 327 81 351 -1 6 -9 -7 -20 -29 -32 -63 -69 -105 -112 -127 -39 -20 -43
-20 -76 -5 -34 17 -34 17 -28 68 4 28 16 90 26 137 20 90 70 323 97 451 8 41
17 81 19 88 2 8 25 12 68 12 72 0 70 -2 82 83 l6 47 -62 0 -62 0 7 43 c4 23
18 89 31 147 13 58 24 117 24 133 0 33 -1 33 -220 3z m-983 -1293 c-3 -10 -5
-4 -5 12 0 17 2 24 5 18 2 -7 2 -21 0 -30z m600 0 c-3 -10 -5 -4 -5 12 0 17 2
24 5 18 2 -7 2 -21 0 -30z"/>
<path d="M7034 1633 c-23 -21 -32 -40 -37 -77 -7 -45 3 -106 20 -132 14 -20
51 -34 89 -34 l37 0 -6 -52 c-8 -63 -46 -219 -57 -233 -5 -5 -12 -23 -17 -40
-14 -52 -101 -208 -143 -257 -22 -25 -60 -56 -85 -68 -43 -21 -47 -21 -71 -5
-25 16 -26 21 -20 68 4 29 27 142 51 252 68 309 108 508 109 535 l1 25 -180 3
-180 2 -85 -397 c-73 -343 -85 -411 -85 -493 1 -77 5 -103 22 -135 48 -91 103
-118 250 -123 179 -7 282 34 395 157 67 72 127 171 173 286 70 174 78 217 82
456 l5 217 -30 33 c-30 33 -33 34 -119 37 -86 4 -90 3 -119 -25z"/>
<path d="M5849 1622 c-87 -23 -168 -73 -239 -149 -58 -62 -130 -171 -130 -198
0 -8 -4 -17 -10 -20 -5 -3 -17 -32 -25 -63 -9 -31 -20 -66 -25 -77 -18 -43
-35 -185 -35 -296 0 -113 1 -118 35 -185 38 -74 94 -122 168 -145 69 -20 221
-23 292 -5 196 50 351 244 401 501 30 155 27 148 97 163 l60 12 10 48 c6 26
13 64 17 84 l7 37 -51 -20 c-28 -10 -65 -19 -81 -19 -28 0 -30 3 -31 38 -3
162 -64 262 -180 296 -68 21 -196 19 -280 -2z m195 -168 c8 -3 20 -21 26 -39
10 -30 8 -35 -20 -63 -28 -29 -30 -35 -30 -107 0 -69 2 -78 26 -102 l27 -27
-17 -72 c-25 -104 -96 -242 -150 -292 -53 -49 -73 -52 -115 -16 -30 25 -31 28
-31 107 0 45 5 110 10 144 24 149 123 376 189 436 41 37 56 42 85 31z"/>
<path d="M4607 1063 c-65 -307 -117 -564 -117 -570 0 -10 43 -13 183 -13 l183
0 32 158 c17 86 42 209 56 272 13 63 38 180 55 260 29 139 32 146 66 177 20
17 50 36 66 42 27 9 31 8 39 -15 6 -14 10 -34 10 -44 0 -10 11 -32 24 -47 22
-26 30 -28 93 -28 124 0 177 58 175 193 0 63 -4 78 -27 108 -37 48 -73 64
-148 64 -70 0 -131 -18 -178 -50 -16 -12 -30 -20 -30 -18 -1 2 -2 17 -3 33
l-2 30 -179 3 -180 2 -118 -557z"/>
</g>
</svg>
